<svg width="24" height="24" viewBox="0 0 24 24" fill="none" xmlns="http://www.w3.org/2000/svg">
<path fill-rule="evenodd" clip-rule="evenodd" d="M3.5 2.75C3.08579 2.75 2.75 3.08579 2.75 3.5V20.5C2.75 20.9142 3.08579 21.25 3.5 21.25H20.5C20.9142 21.25 21.25 20.9142 21.25 20.5V3.5C21.25 3.08579 20.9142 2.75 20.5 2.75H3.5ZM1.25 3.5C1.25 2.25736 2.25736 1.25 3.5 1.25H20.5C21.7426 1.25 22.75 2.25736 22.75 3.5V20.5C22.75 21.7426 21.7426 22.75 20.5 22.75H3.5C2.25736 22.75 1.25 21.7426 1.25 20.5V3.5Z" fill="#666666"/>
<path fill-rule="evenodd" clip-rule="evenodd" d="M9 2.25C9.41421 2.25 9.75 2.58579 9.75 3V21C9.75 21.4142 9.41421 21.75 9 21.75C8.58579 21.75 8.25 21.4142 8.25 21V3C8.25 2.58579 8.58579 2.25 9 2.25Z" fill="#666666"/>
<path fill-rule="evenodd" clip-rule="evenodd" d="M16.5303 9.46967C16.8232 9.76256 16.8232 10.2374 16.5303 10.5303L15.0607 12L16.5303 13.4697C16.8232 13.7626 16.8232 14.2374 16.5303 14.5303C16.2374 14.8232 15.7626 14.8232 15.4697 14.5303L13.4697 12.5303C13.1768 12.2374 13.1768 11.7626 13.4697 11.4697L15.4697 9.46967C15.7626 9.17678 16.2374 9.17678 16.5303 9.46967Z" fill="#666666"/>
</svg>
