<svg width="24" height="24" viewBox="0 0 24 24" fill="none" xmlns="http://www.w3.org/2000/svg">
<g clip-path="url(#clip0_954_1371)">
<path fill-rule="evenodd" clip-rule="evenodd" d="M1.25 20.5C1.25 21.7426 2.25736 22.75 3.5 22.75H20.5C21.7427 22.75 22.75 21.7426 22.75 20.5V11.875C22.75 11.4608 22.4142 11.125 22 11.125C21.5858 11.125 21.25 11.4608 21.25 11.875V20.5C21.25 20.9142 20.9142 21.25 20.5 21.25H3.5C3.08579 21.25 2.75 20.9142 2.75 20.5V5.5C2.75 5.08577 3.08578 4.75 3.5 4.75H10.875C11.2892 4.75 11.625 4.41421 11.625 4C11.625 3.58579 11.2892 3.25 10.875 3.25H3.5C2.25737 3.25 1.25 4.25733 1.25 5.5V20.5Z" fill="#666666"/>
<path d="M13.3879 10.8879L22.1097 2.16606M22.1097 2.16606L21.844 7.65599M22.1097 2.16606L16.4583 2.2703" stroke="#666666" stroke-width="1.5" stroke-linecap="round" stroke-linejoin="round"/>
</g>
<defs>
<clipPath id="clip0_954_1371">
<rect width="24" height="24" fill="white"/>
</clipPath>
</defs>
</svg>
