<svg width="24" height="24" viewBox="0 0 24 24" fill="none" xmlns="http://www.w3.org/2000/svg">
<path fill-rule="evenodd" clip-rule="evenodd" d="M3.5 2.75C3.08579 2.75 2.75 3.08579 2.75 3.5V20.5C2.75 20.9142 3.08579 21.25 3.5 21.25H20.5C20.9142 21.25 21.25 20.9142 21.25 20.5V3.5C21.25 3.08579 20.9142 2.75 20.5 2.75H3.5ZM1.25 3.5C1.25 2.25736 2.25736 1.25 3.5 1.25H20.5C21.7426 1.25 22.75 2.25736 22.75 3.5V20.5C22.75 21.7426 21.7426 22.75 20.5 22.75H3.5C2.25736 22.75 1.25 21.7426 1.25 20.5V3.5Z" fill="#666666"/>
<path fill-rule="evenodd" clip-rule="evenodd" d="M5.75 6.5C5.75 6.08579 6.08579 5.75 6.5 5.75H10.5C10.9142 5.75 11.25 6.08579 11.25 6.5V10.5C11.25 10.9142 10.9142 11.25 10.5 11.25H6.5C6.08579 11.25 5.75 10.9142 5.75 10.5V6.5ZM7.25 7.25V9.75H9.75V7.25H7.25Z" fill="#666666"/>
<path fill-rule="evenodd" clip-rule="evenodd" d="M12.75 6.5C12.75 6.08579 13.0858 5.75 13.5 5.75H17.5C17.9142 5.75 18.25 6.08579 18.25 6.5C18.25 6.91421 17.9142 7.25 17.5 7.25H13.5C13.0858 7.25 12.75 6.91421 12.75 6.5Z" fill="#666666"/>
<path fill-rule="evenodd" clip-rule="evenodd" d="M12.75 10C12.75 9.58579 13.0858 9.25 13.5 9.25H17.5C17.9142 9.25 18.25 9.58579 18.25 10C18.25 10.4142 17.9142 10.75 17.5 10.75H13.5C13.0858 10.75 12.75 10.4142 12.75 10Z" fill="#666666"/>
<path fill-rule="evenodd" clip-rule="evenodd" d="M5.75 14C5.75 13.5858 6.08579 13.25 6.5 13.25H17.5C17.9142 13.25 18.25 13.5858 18.25 14C18.25 14.4142 17.9142 14.75 17.5 14.75H6.5C6.08579 14.75 5.75 14.4142 5.75 14Z" fill="#666666"/>
<path fill-rule="evenodd" clip-rule="evenodd" d="M5.75 17.5C5.75 17.0858 6.08579 16.75 6.5 16.75H17.5C17.9142 16.75 18.25 17.0858 18.25 17.5C18.25 17.9142 17.9142 18.25 17.5 18.25H6.5C6.08579 18.25 5.75 17.9142 5.75 17.5Z" fill="#666666"/>
</svg>
