<svg width="24" height="24" viewBox="0 0 24 24" fill="none" xmlns="http://www.w3.org/2000/svg">
<path fill-rule="evenodd" clip-rule="evenodd" d="M3.5 2.75C3.08579 2.75 2.75 3.08579 2.75 3.5V20.5C2.75 20.9142 3.08579 21.25 3.5 21.25H20.5C20.9142 21.25 21.25 20.9142 21.25 20.5V3.5C21.25 3.08579 20.9142 2.75 20.5 2.75H3.5ZM1.25 3.5C1.25 2.25736 2.25736 1.25 3.5 1.25H20.5C21.7426 1.25 22.75 2.25736 22.75 3.5V20.5C22.75 21.7426 21.7426 22.75 20.5 22.75H3.5C2.25736 22.75 1.25 21.7426 1.25 20.5V3.5Z" fill="#3392D3"/>
<path fill-rule="evenodd" clip-rule="evenodd" d="M9.75 2C9.75 1.58579 10.0858 1.25 10.5 1.25H16.5C16.9142 1.25 17.25 1.58579 17.25 2V11C17.25 11.3064 17.0636 11.582 16.7793 11.6961C16.495 11.8102 16.1698 11.7398 15.958 11.5184L13.5 8.94868L11.042 11.5184C10.8302 11.7398 10.505 11.8102 10.2207 11.6961C9.93636 11.582 9.75 11.3064 9.75 11V2ZM11.25 2.75V9.13088L12.958 7.34523C13.0995 7.19731 13.2953 7.11365 13.5 7.11365C13.7047 7.11365 13.9005 7.19731 14.042 7.34523L15.75 9.13088V2.75H11.25Z" fill="#3392D3"/>
<path fill-rule="evenodd" clip-rule="evenodd" d="M4.25 2C4.25 1.58579 4.58579 1.25 5 1.25H19C19.4142 1.25 19.75 1.58579 19.75 2C19.75 2.41421 19.4142 2.75 19 2.75H5C4.58579 2.75 4.25 2.41421 4.25 2Z" fill="#3392D3"/>
</svg>
