<svg width="460" height="80" viewBox="0 0 460 80" fill="none" xmlns="http://www.w3.org/2000/svg">
<path d="M26.457 12C26.457 7.58172 30.0388 4 34.457 4H88.457C92.8753 4 96.457 7.58172 96.457 12C96.457 16.4183 92.8753 20 88.457 20H34.457C30.0388 20 26.457 16.4183 26.457 12Z" fill="white"/>
<path d="M26.082 40C26.082 35.5817 29.6638 32 34.082 32H68.082C72.5003 32 76.082 35.5817 76.082 40C76.082 44.4183 72.5003 48 68.082 48H34.082C29.6638 48 26.082 44.4183 26.082 40Z" fill="white"/>
<path d="M0.0820312 40C0.0820312 35.5817 3.66375 32 8.08203 32C12.5003 32 16.082 35.5817 16.082 40C16.082 44.4183 12.5003 48 8.08203 48C3.66375 48 0.0820312 44.4183 0.0820312 40Z" fill="white"/>
<path d="M26.082 68C26.082 63.5817 29.6638 60 34.082 60C38.5003 60 42.082 63.5817 42.082 68C42.082 72.4183 38.5003 76 34.082 76C29.6638 76 26.082 72.4183 26.082 68Z" fill="white"/>
<path d="M175.337 21.01H154.097V32.35H173.447V47.29H154.097V73.93H136.457V6.07H175.337V21.01Z" fill="white"/>
<path d="M208.977 6.07V58.99H230.127V73.93H191.337V6.07H208.977Z" fill="white"/>
<path d="M326.127 40C326.127 62.0914 308.218 80 286.127 80C264.036 80 246.127 62.0914 246.127 40C246.127 17.9086 264.036 0 286.127 0C308.218 0 326.127 17.9086 326.127 40Z" fill="white"/>
<path d="M359.767 37.21H365.617C372.097 37.21 375.337 34.39 375.337 28.75C375.337 23.11 372.097 20.29 365.617 20.29H359.767V37.21ZM359.767 73.93H342.127V6.07H370.207C377.827 6.07 383.647 8.05 387.667 12.01C391.747 15.97 393.787 21.55 393.787 28.75C393.787 35.95 391.747 41.53 387.667 45.49C383.647 49.45 377.827 51.43 370.207 51.43H359.767V73.93Z" fill="white"/>
<path d="M450.107 23.44C448.187 21.88 446.267 20.74 444.347 20.02C442.427 19.24 440.567 18.85 438.767 18.85C436.487 18.85 434.627 19.39 433.187 20.47C431.747 21.55 431.027 22.96 431.027 24.7C431.027 25.9 431.387 26.89 432.107 27.67C432.827 28.45 433.757 29.14 434.897 29.74C436.097 30.28 437.417 30.76 438.857 31.18C440.357 31.6 441.827 32.05 443.267 32.53C449.027 34.45 453.227 37.03 455.867 40.27C458.567 43.45 459.917 47.62 459.917 52.78C459.917 56.26 459.317 59.41 458.117 62.23C456.977 65.05 455.267 67.48 452.987 69.52C450.767 71.5 448.007 73.03 444.707 74.11C441.467 75.25 437.777 75.82 433.637 75.82C425.057 75.82 417.107 73.27 409.787 68.17L417.347 53.95C419.987 56.29 422.597 58.03 425.177 59.17C427.757 60.31 430.307 60.88 432.827 60.88C435.707 60.88 437.837 60.22 439.217 58.9C440.657 57.58 441.377 56.08 441.377 54.4C441.377 53.38 441.197 52.51 440.837 51.79C440.477 51.01 439.877 50.32 439.037 49.72C438.197 49.06 437.087 48.46 435.707 47.92C434.387 47.38 432.767 46.78 430.847 46.12C428.567 45.4 426.317 44.62 424.097 43.78C421.937 42.88 419.987 41.71 418.247 40.27C416.567 38.83 415.187 37.03 414.107 34.87C413.087 32.65 412.577 29.86 412.577 26.5C412.577 23.14 413.117 20.11 414.197 17.41C415.337 14.65 416.897 12.31 418.877 10.39C420.917 8.41 423.377 6.88 426.257 5.8C429.197 4.72 432.467 4.18 436.067 4.18C439.427 4.18 442.937 4.66 446.597 5.61999C450.257 6.52 453.767 7.87 457.127 9.67L450.107 23.44Z" fill="white"/>
</svg>
