<svg width="600" height="600" viewBox="0 0 600 600" fill="none" xmlns="http://www.w3.org/2000/svg">
<rect x="106.148" y="265.714" width="66.6667" height="15.2381" rx="7.61905" fill="white"/>
<rect x="105.793" y="292.381" width="47.619" height="15.2381" rx="7.61905" fill="white"/>
<rect x="81.0312" y="292.381" width="15.2381" height="15.2381" rx="7.61905" fill="white"/>
<rect x="105.793" y="319.048" width="15.2381" height="15.2381" rx="7.61905" fill="white"/>
<path d="M247.939 281.914H227.71V292.714H246.139V306.942H227.71V332.314H210.91V267.685H247.939V281.914Z" fill="white"/>
<path d="M279.976 267.685V318.085H300.119V332.314H263.176V267.685H279.976Z" fill="white"/>
<circle cx="353.455" cy="300" r="38.0952" fill="white"/>
<path d="M423.585 297.342H429.157C435.328 297.342 438.414 294.656 438.414 289.285C438.414 283.914 435.328 281.228 429.157 281.228H423.585V297.342ZM423.585 332.314H406.785V267.685H433.528C440.785 267.685 446.328 269.571 450.157 273.342C454.042 277.114 455.985 282.428 455.985 289.285C455.985 296.142 454.042 301.456 450.157 305.228C446.328 308.999 440.785 310.885 433.528 310.885H423.585V332.314Z" fill="white"/>
<path d="M509.623 284.228C507.794 282.742 505.966 281.657 504.137 280.971C502.308 280.228 500.537 279.857 498.823 279.857C496.651 279.857 494.88 280.371 493.508 281.4C492.137 282.428 491.451 283.771 491.451 285.428C491.451 286.571 491.794 287.514 492.48 288.257C493.166 289 494.051 289.657 495.137 290.228C496.28 290.742 497.537 291.2 498.908 291.6C500.337 292 501.737 292.428 503.108 292.885C508.594 294.714 512.594 297.171 515.108 300.257C517.68 303.285 518.966 307.257 518.966 312.171C518.966 315.485 518.394 318.485 517.251 321.171C516.166 323.857 514.537 326.171 512.366 328.114C510.251 330 507.623 331.457 504.48 332.485C501.394 333.571 497.88 334.114 493.937 334.114C485.766 334.114 478.194 331.685 471.223 326.828L478.423 313.285C480.937 315.514 483.423 317.171 485.88 318.257C488.337 319.342 490.766 319.885 493.166 319.885C495.908 319.885 497.937 319.257 499.251 318C500.623 316.742 501.308 315.314 501.308 313.714C501.308 312.742 501.137 311.914 500.794 311.228C500.451 310.485 499.88 309.828 499.08 309.257C498.28 308.628 497.223 308.057 495.908 307.542C494.651 307.028 493.108 306.457 491.28 305.828C489.108 305.142 486.966 304.4 484.851 303.6C482.794 302.742 480.937 301.628 479.28 300.257C477.68 298.885 476.366 297.171 475.337 295.114C474.366 293 473.88 290.342 473.88 287.142C473.88 283.942 474.394 281.057 475.423 278.485C476.508 275.857 477.994 273.628 479.88 271.8C481.823 269.914 484.166 268.457 486.908 267.428C489.708 266.4 492.823 265.885 496.251 265.885C499.451 265.885 502.794 266.342 506.28 267.257C509.766 268.114 513.108 269.4 516.308 271.114L509.623 284.228Z" fill="white"/>
</svg>
