<svg width="32" height="32" viewBox="0 0 32 32" fill="none" xmlns="http://www.w3.org/2000/svg">
<path d="M12.2101 29.4322C10.071 29.4434 8.0122 28.6194 6.47328 27.1361C5.71699 26.4077 5.11546 25.5347 4.70462 24.5691C4.29377 23.6035 4.08203 22.5652 4.08203 21.5161C4.08203 20.4671 4.29377 19.4287 4.70462 18.4632C5.11546 17.4976 5.71699 16.6245 6.47328 15.8961L18.3615 4.36246C19.4447 3.33715 20.8805 2.76562 22.3733 2.76562C23.866 2.76562 25.3019 3.33715 26.385 4.36246C26.9214 4.87466 27.3484 5.49003 27.64 6.17143C27.9317 6.85284 28.082 7.58616 28.082 8.32716C28.082 9.06816 27.9317 9.80148 27.64 10.4829C27.3484 11.1643 26.9214 11.7797 26.385 12.2919L14.3497 23.919C13.7184 24.5181 12.8806 24.8522 12.0095 24.8522C11.1385 24.8522 10.3007 24.5181 9.66933 23.919C9.35711 23.6177 9.10883 23.2568 8.93926 22.8578C8.76969 22.4587 8.6823 22.0297 8.6823 21.5962C8.6823 21.1628 8.76969 20.7337 8.93926 20.3347C9.10883 19.9356 9.35711 19.5747 9.66933 19.2735L18.3615 10.9569C18.4477 10.8665 18.5514 10.7944 18.6663 10.7452C18.7813 10.696 18.9051 10.6706 19.0301 10.6706C19.1552 10.6706 19.279 10.696 19.3939 10.7452C19.5088 10.7944 19.6126 10.8665 19.6988 10.9569C19.872 11.1361 19.9688 11.3754 19.9688 11.6244C19.9688 11.8734 19.872 12.1127 19.6988 12.2919L11.1136 20.6217C10.9815 20.7474 10.8767 20.8986 10.8054 21.0662C10.7341 21.2338 10.6979 21.4142 10.699 21.5962C10.6979 21.7783 10.7341 21.9587 10.8054 22.1262C10.8767 22.2938 10.9815 22.4451 11.1136 22.5707C11.3959 22.8463 11.7751 23.0006 12.17 23.0006C12.5649 23.0006 12.9441 22.8463 13.2264 22.5707L25.2617 10.9569C25.6169 10.6168 25.8995 10.2085 26.0925 9.7566C26.2856 9.30468 26.3851 8.81846 26.3851 8.32716C26.3851 7.83587 26.2856 7.34964 26.0925 6.89772C25.8995 6.44579 25.6169 6.0375 25.2617 5.69737C24.517 4.99517 23.5314 4.60397 22.507 4.60397C21.4826 4.60397 20.497 4.99517 19.7522 5.69737L7.85066 17.2444C7.2713 17.7955 6.81007 18.4582 6.49492 19.1925C6.17978 19.9268 6.01728 20.7173 6.01728 21.5161C6.01728 22.315 6.17978 23.1055 6.49492 23.8398C6.81007 24.5741 7.2713 25.2368 7.85066 25.7879C9.04903 26.9389 10.6474 27.5818 12.3104 27.5818C13.9734 27.5818 15.5718 26.9389 16.7702 25.7879L25.1681 17.5114C25.2559 17.4237 25.3602 17.3542 25.4749 17.3068C25.5896 17.2593 25.7126 17.2349 25.8368 17.2349C25.9609 17.2349 26.0839 17.2593 26.1986 17.3068C26.3133 17.3542 26.4176 17.4237 26.5054 17.5114C26.5932 17.599 26.6628 17.7031 26.7104 17.8176C26.7579 17.9321 26.7823 18.0549 26.7823 18.1788C26.7823 18.3028 26.7579 18.4255 26.7104 18.5401C26.6628 18.6546 26.5932 18.7586 26.5054 18.8463L17.9603 27.1361C16.4157 28.619 14.3531 29.4426 12.2101 29.4322Z" fill="#444444"/>
</svg>
