<svg width="32" height="32" viewBox="0 0 32 32" fill="none" xmlns="http://www.w3.org/2000/svg">
<path d="M25.333 4C26.8058 4 28 5.19423 28 6.66699V20.752C27.9999 22.2246 26.8057 23.418 25.333 23.418H11.5L6.17188 27.7295C5.30006 28.4346 4 27.8137 4 26.6924V21.1104C4.00001 21.0603 4.00242 21.0106 4.00781 20.9619C4.00241 20.8926 4.00001 20.8226 4 20.752V6.66699C4 5.19423 5.19423 4 6.66699 4H25.333ZM6.66699 6C6.2988 6 6 6.2988 6 6.66699V20.752C6.00001 20.7707 6.00058 20.789 6.00195 20.8066L6.0166 20.9951L6 21.1465V25.2959L10.792 21.418H25.333C25.7011 21.418 25.9999 21.12 26 20.752V6.66699C26 6.2988 25.7012 6 25.333 6H6.66699ZM18.2227 15C18.7747 15.0002 19.2227 15.4479 19.2227 16C19.2227 16.5521 18.7747 16.9998 18.2227 17H9.33301C8.78087 16.9998 8.33301 16.5522 8.33301 16C8.33301 15.4478 8.78087 15.0002 9.33301 15H18.2227ZM22.667 9.66699C23.2191 9.66717 23.667 10.1148 23.667 10.667C23.6668 11.219 23.219 11.6668 22.667 11.667H9.33301C8.78098 11.6668 8.33318 11.219 8.33301 10.667C8.33301 10.1148 8.78087 9.66717 9.33301 9.66699H22.667Z" fill="#444444"/>
</svg>
