<svg width="200" height="200" viewBox="0 0 200 200" fill="none" xmlns="http://www.w3.org/2000/svg">
<rect x="35.3828" y="88.5713" width="22.2222" height="5.07937" rx="2.53968" fill="#003356"/>
<rect x="35.2656" y="97.46" width="15.873" height="5.07937" rx="2.53968" fill="#003356"/>
<rect x="27.0117" y="97.46" width="5.07937" height="5.07937" rx="2.53968" fill="#003356"/>
<rect x="35.2656" y="106.349" width="5.07937" height="5.07937" rx="2.53968" fill="#003356"/>
<path d="M82.6475 93.9714H75.9047V97.5714H82.0475V102.314H75.9047V110.771H70.3047V89.2285H82.6475V93.9714Z" fill="#003356"/>
<path d="M93.3266 89.2285V106.029H100.041V110.771H87.7266V89.2285H93.3266Z" fill="#003356"/>
<circle cx="117.82" cy="100" r="12.6984" fill="#003356"/>
<path d="M141.198 99.1142H143.055C145.112 99.1142 146.141 98.219 146.141 96.4285C146.141 94.638 145.112 93.7428 143.055 93.7428H141.198V99.1142ZM141.198 110.771H135.598V89.2285H144.512C146.931 89.2285 148.779 89.8571 150.055 91.1142C151.35 92.3714 151.998 94.1428 151.998 96.4285C151.998 98.7142 151.35 100.486 150.055 101.743C148.779 103 146.931 103.629 144.512 103.629H141.198V110.771Z" fill="#003356"/>
<path d="M169.874 94.7432C169.265 94.248 168.655 93.886 168.046 93.6575C167.436 93.4099 166.846 93.286 166.274 93.286C165.55 93.286 164.96 93.4575 164.503 93.8003C164.046 94.1432 163.817 94.5908 163.817 95.1432C163.817 95.5241 163.931 95.8384 164.16 96.0861C164.389 96.3337 164.684 96.5527 165.046 96.7432C165.427 96.9146 165.846 97.067 166.303 97.2003C166.779 97.3337 167.246 97.4765 167.703 97.6289C169.531 98.2384 170.865 99.0575 171.703 100.086C172.56 101.096 172.989 102.419 172.989 104.057C172.989 105.162 172.798 106.162 172.417 107.057C172.055 107.953 171.512 108.724 170.789 109.372C170.084 110 169.208 110.486 168.16 110.829C167.131 111.191 165.96 111.372 164.646 111.372C161.922 111.372 159.398 110.562 157.074 108.943L159.474 104.429C160.312 105.172 161.141 105.724 161.96 106.086C162.779 106.448 163.589 106.629 164.389 106.629C165.303 106.629 165.979 106.419 166.417 106C166.874 105.581 167.103 105.105 167.103 104.572C167.103 104.248 167.046 103.972 166.931 103.743C166.817 103.496 166.627 103.277 166.36 103.086C166.093 102.877 165.741 102.686 165.303 102.515C164.884 102.343 164.369 102.153 163.76 101.943C163.036 101.715 162.322 101.467 161.617 101.2C160.931 100.915 160.312 100.543 159.76 100.086C159.227 99.6289 158.789 99.0575 158.446 98.3718C158.122 97.667 157.96 96.7813 157.96 95.7146C157.96 94.648 158.131 93.686 158.474 92.8289C158.836 91.9527 159.331 91.2099 159.96 90.6003C160.608 89.9718 161.389 89.486 162.303 89.1432C163.236 88.8003 164.274 88.6289 165.417 88.6289C166.484 88.6289 167.598 88.7813 168.76 89.086C169.922 89.3718 171.036 89.8003 172.103 90.3718L169.874 94.7432Z" fill="#003356"/>
</svg>
