<svg width="24" height="24" viewBox="0 0 24 24" fill="none" xmlns="http://www.w3.org/2000/svg">
<path fill-rule="evenodd" clip-rule="evenodd" d="M12.0018 7.65063C9.59914 7.65063 7.65137 9.59841 7.65137 12.0011C7.65137 14.4038 9.59914 16.3516 12.0018 16.3516C14.4046 16.3516 16.3523 14.4038 16.3523 12.0011C16.3523 9.59841 14.4046 7.65063 12.0018 7.65063ZM9.15137 12.0011C9.15137 10.4268 10.4276 9.15063 12.0018 9.15063C13.5761 9.15063 14.8523 10.4268 14.8523 12.0011C14.8523 13.5754 13.5761 14.8516 12.0018 14.8516C10.4276 14.8516 9.15137 13.5754 9.15137 12.0011Z" fill="#666666"/>
<path fill-rule="evenodd" clip-rule="evenodd" d="M10.029 2.85537C9.51379 2.54605 8.87113 2.54129 8.35137 2.84295L5.89586 4.2681C5.37856 4.56834 5.06422 5.125 5.07428 5.72303L5.10125 7.32606C5.10446 7.51646 5.05583 7.70416 4.96058 7.86905L4.90217 7.97016C4.80687 8.13515 4.66848 8.2711 4.50182 8.36346L3.10224 9.13906C2.57635 9.43049 2.25059 9.98489 2.25196 10.5861L2.2584 13.4231C2.25976 14.0207 2.5841 14.5709 3.10632 14.8614L4.49919 15.6363C4.66641 15.7293 4.80504 15.8662 4.9001 16.0323L4.96268 16.1416C5.05659 16.3057 5.10448 16.4921 5.10129 16.6811L5.07434 18.2771C5.06422 18.877 5.3805 19.4352 5.90035 19.7347L8.36365 21.1542C8.88216 21.453 9.5218 21.4476 10.0352 21.1402L11.4026 20.3215C11.5656 20.2238 11.7521 20.1723 11.9421 20.1723H12.0607C12.2511 20.1723 12.438 20.2241 12.6012 20.3221L13.9749 21.1468C14.4901 21.4561 15.1328 21.4608 15.6525 21.1592L18.108 19.734C18.6254 19.4338 18.9397 18.8771 18.9296 18.2791L18.9027 16.6761C18.8995 16.4857 18.9481 16.298 19.0433 16.1331L19.1017 16.032C19.197 15.867 19.3354 15.731 19.5021 15.6387L20.9017 14.8631C21.4276 14.5716 21.7533 14.0172 21.7519 13.416L21.7455 10.579C21.7441 9.98139 21.4198 9.43123 20.8976 9.14072L19.5014 8.364C19.3354 8.27165 19.1975 8.13602 19.1025 7.97154L19.0433 7.86905C18.9481 7.70416 18.8995 7.51647 18.9027 7.32606L18.9296 5.72491C18.9397 5.12504 18.6234 4.56697 18.1036 4.26742L15.6403 2.84793C15.1217 2.54914 14.4821 2.55449 13.9687 2.86192L12.6013 3.68066C12.4383 3.77828 12.2518 3.82984 12.0618 3.82984H11.9432C11.7528 3.82984 11.5659 3.77805 11.4027 3.68003L10.029 2.85537ZM9.10433 4.14028C9.15161 4.11284 9.21008 4.11327 9.25695 4.14141L10.6306 4.96607C11.0271 5.2041 11.4808 5.32984 11.9432 5.32984H12.0618C12.5232 5.32984 12.976 5.20464 13.3719 4.96759L14.7393 4.14886C14.786 4.12089 14.8442 4.1204 14.8913 4.14758L17.3547 5.56708C17.4019 5.59433 17.4307 5.6451 17.4298 5.69967L17.4029 7.30083C17.3951 7.76317 17.5132 8.21893 17.7445 8.61934L17.8037 8.72182C18.0344 9.12123 18.3691 9.45058 18.7722 9.67481L20.1684 10.4515C20.2159 10.478 20.2454 10.528 20.2455 10.5824L20.252 13.4194C20.2521 13.4741 20.2224 13.5245 20.1746 13.5511L18.775 14.3267C18.3703 14.5509 18.0343 14.881 17.8029 15.2817L17.7445 15.3828C17.5132 15.7832 17.3951 16.239 17.4029 16.7013L17.4298 18.3043C17.4308 18.3587 17.4022 18.4094 17.3551 18.4367L14.8996 19.8618C14.8523 19.8893 14.7938 19.8889 14.747 19.8607L13.3733 19.036C12.9768 18.798 12.5231 18.6723 12.0607 18.6723H11.9421C11.4807 18.6723 11.0279 18.7975 10.632 19.0345L9.26465 19.8533C9.21794 19.8812 9.15975 19.8817 9.11258 19.8545L6.64928 18.4351C6.60198 18.4078 6.57321 18.357 6.57413 18.3025L6.60107 16.7064C6.60882 16.2474 6.49254 15.7949 6.2645 15.3965L6.20192 15.2872C5.97109 14.8839 5.63446 14.5513 5.2284 14.3254L3.83554 13.5506C3.78803 13.5242 3.75852 13.4741 3.7584 13.4197L3.75195 10.5827C3.75183 10.528 3.78147 10.4776 3.82931 10.4511L5.22889 9.67547C5.63357 9.4512 5.96962 9.12108 6.20104 8.72045L6.25945 8.61934C6.49074 8.21894 6.60882 7.76317 6.60104 7.30083L6.57407 5.69779C6.57315 5.64339 6.60175 5.59275 6.64881 5.56543L9.10433 4.14028Z" fill="#666666"/>
</svg>
