<svg width="24" height="24" viewBox="0 0 24 24" fill="none" xmlns="http://www.w3.org/2000/svg">
<path fill-rule="evenodd" clip-rule="evenodd" d="M12 8.25C9.65281 8.25 7.75 10.1528 7.75 12.5V19.75H16.25V12.5C16.25 10.1528 14.3472 8.25 12 8.25ZM6.25 12.5C6.25 9.32439 8.82439 6.75 12 6.75C15.1756 6.75 17.75 9.32439 17.75 12.5V20.5C17.75 20.9142 17.4142 21.25 17 21.25H7C6.58579 21.25 6.25 20.9142 6.25 20.5V12.5Z" fill="#666666"/>
<path fill-rule="evenodd" clip-rule="evenodd" d="M12 1.75C12.4142 1.75 12.75 2.08579 12.75 2.5V4C12.75 4.41421 12.4142 4.75 12 4.75C11.5858 4.75 11.25 4.41421 11.25 4V2.5C11.25 2.08579 11.5858 1.75 12 1.75Z" fill="#666666"/>
<path fill-rule="evenodd" clip-rule="evenodd" d="M18.4278 4.08955C18.7451 4.35581 18.7864 4.82887 18.5202 5.14618L17.556 6.29524C17.2897 6.61254 16.8167 6.65393 16.4994 6.38767C16.1821 6.12142 16.1407 5.64835 16.4069 5.33105L17.3711 4.18198C17.6374 3.86468 18.1105 3.8233 18.4278 4.08955Z" fill="#666666"/>
<path fill-rule="evenodd" clip-rule="evenodd" d="M21.8483 10.0135C21.9202 10.4214 21.6479 10.8104 21.2399 10.8824L19.7627 11.1429C19.3548 11.2148 18.9658 10.9424 18.8938 10.5345C18.8219 10.1266 19.0943 9.73759 19.5022 9.66565L20.9795 9.40515C21.3874 9.33322 21.7764 9.60559 21.8483 10.0135Z" fill="#666666"/>
<path fill-rule="evenodd" clip-rule="evenodd" d="M2.15214 10.0135C2.22406 9.60561 2.61305 9.33323 3.02098 9.40515L4.49819 9.6656C4.90611 9.73752 5.17849 10.1265 5.10657 10.5344C5.03465 10.9424 4.64566 11.2147 4.23774 11.1428L2.76053 10.8824C2.3526 10.8104 2.08022 10.4215 2.15214 10.0135Z" fill="#666666"/>
<path fill-rule="evenodd" clip-rule="evenodd" d="M5.57212 4.08955C5.88942 3.8233 6.36249 3.86468 6.62875 4.18198L7.59295 5.33105C7.8592 5.64835 7.81782 6.12142 7.50051 6.38767C7.18321 6.65393 6.71014 6.61254 6.44389 6.29524L5.47969 5.14618C5.21343 4.82887 5.25482 4.35581 5.57212 4.08955Z" fill="#666666"/>
<path fill-rule="evenodd" clip-rule="evenodd" d="M2.25 20.5C2.25 20.0858 2.58579 19.75 3 19.75H21.5C21.9142 19.75 22.25 20.0858 22.25 20.5C22.25 20.9142 21.9142 21.25 21.5 21.25H3C2.58579 21.25 2.25 20.9142 2.25 20.5Z" fill="#666666"/>
</svg>
