<svg width="24" height="24" viewBox="0 0 24 24" fill="none" xmlns="http://www.w3.org/2000/svg">
<path fill-rule="evenodd" clip-rule="evenodd" d="M12 2.25C12.2848 2.25 12.5449 2.41124 12.6717 2.66624L15.2778 7.91058L21.1069 8.74957C21.3902 8.79035 21.6256 8.98881 21.7136 9.26115C21.8017 9.53349 21.7271 9.83221 21.5213 10.0311L17.3003 14.1116L18.2954 19.8723C18.3439 20.1536 18.2287 20.438 17.9981 20.6061C17.7674 20.7742 17.4614 20.7968 17.2085 20.6645L12.0059 17.9418L6.79088 20.6648C6.53802 20.7969 6.23214 20.774 6.00169 20.6059C5.77125 20.4377 5.65613 20.1534 5.70469 19.8723L6.69973 14.1116L2.47874 10.0311C2.27296 9.83221 2.19834 9.53349 2.28641 9.26115C2.37447 8.98881 2.60987 8.79035 2.89317 8.74957L8.72226 7.91058L11.3284 2.66624C11.4551 2.41124 11.7153 2.25 12 2.25ZM12 4.68532L9.89037 8.93062C9.78068 9.15134 9.56954 9.30409 9.32558 9.3392L4.6215 10.0163L8.02761 13.309C8.2061 13.4815 8.28764 13.7312 8.24539 13.9759L7.44093 18.6332L11.6592 16.4307C11.8769 16.317 12.1365 16.3171 12.3541 16.431L16.5588 18.6315L15.7547 13.9759C15.7124 13.7312 15.7939 13.4815 15.9724 13.309L19.3785 10.0163L14.6745 9.3392C14.4305 9.30409 14.2194 9.15134 14.1097 8.93062L12 4.68532Z" fill="#666666"/>
</svg>
