<svg width="20" height="20" viewBox="0 0 20 20" fill="none" xmlns="http://www.w3.org/2000/svg">
<path fill-rule="evenodd" clip-rule="evenodd" d="M10 1.875C10.2373 1.875 10.4541 2.00937 10.5597 2.22186L12.7315 6.59215L17.5891 7.29131C17.8251 7.32529 18.0213 7.49068 18.0947 7.71763C18.1681 7.94458 18.1059 8.19351 17.9344 8.35929L14.4169 11.7597L15.2461 16.5603C15.2866 16.7946 15.1906 17.0317 14.9984 17.1717C14.8062 17.3118 14.5512 17.3307 14.3405 17.2204L10.0049 14.9515L5.65907 17.2207C5.44835 17.3307 5.19345 17.3117 5.00141 17.1716C4.80937 17.0315 4.71344 16.7945 4.75391 16.5603L5.58311 11.7597L2.06562 8.35929C1.89413 8.19351 1.83195 7.94458 1.90534 7.71763C1.97873 7.49068 2.17489 7.32529 2.41098 7.29131L7.26855 6.59215L9.44032 2.22186C9.54591 2.00937 9.76273 1.875 10 1.875ZM10 3.90443L8.24197 7.44218C8.15057 7.62612 7.97462 7.75341 7.77131 7.78267L3.85125 8.34689L6.68967 11.0908C6.83842 11.2346 6.90637 11.4427 6.87116 11.6466L6.20077 15.5277L9.71599 13.6922C9.89742 13.5975 10.1137 13.5976 10.2951 13.6925L13.799 15.5262L13.1289 11.6466C13.0937 11.4427 13.1616 11.2346 13.3104 11.0908L16.1488 8.34689L12.2287 7.78267C12.0254 7.75341 11.8495 7.62612 11.7581 7.44218L10 3.90443Z" fill="#999999"/>
</svg>
