<svg width="20" height="20" viewBox="0 0 20 20" fill="none" xmlns="http://www.w3.org/2000/svg">
<path fill-rule="evenodd" clip-rule="evenodd" d="M1.66699 2.70801C2.01217 2.70801 2.29199 2.98783 2.29199 3.33301V8.33301C2.29199 8.35976 2.30159 8.4323 2.41443 8.55088C2.53034 8.67267 2.72761 8.81079 3.01918 8.94038C3.60075 9.19886 4.44798 9.37467 5.41699 9.37467C6.38602 9.37467 7.23325 9.19886 7.81481 8.94038C8.10638 8.81079 8.30364 8.67267 8.41955 8.55088C8.5324 8.4323 8.54199 8.35976 8.54199 8.33301V3.33301C8.54199 2.98783 8.82181 2.70801 9.16699 2.70801C9.51217 2.70801 9.79199 2.98783 9.79199 3.33301V8.33301C9.79199 8.76649 9.59172 9.13239 9.32505 9.41261C9.06144 9.6896 8.70953 9.91062 8.32249 10.0826C7.54682 10.4274 6.51905 10.6247 5.41699 10.6247C4.31494 10.6247 3.28717 10.4274 2.5115 10.0826C2.12446 9.91062 1.77255 9.68961 1.50894 9.41261C1.24227 9.13239 1.04199 8.76649 1.04199 8.33301V3.33301C1.04199 2.98783 1.32181 2.70801 1.66699 2.70801Z" fill="white"/>
<path fill-rule="evenodd" clip-rule="evenodd" d="M1.66699 5.20801C2.01217 5.20801 2.29199 5.48783 2.29199 5.83301C2.29199 5.85976 2.30159 5.9323 2.41443 6.05088C2.53034 6.17267 2.72761 6.31079 3.01918 6.44038C3.60075 6.69886 4.44798 6.87467 5.41699 6.87467C6.38602 6.87467 7.23325 6.69886 7.81481 6.44038C8.10638 6.31079 8.30364 6.17267 8.41955 6.05088C8.5324 5.9323 8.54199 5.85976 8.54199 5.83301C8.54199 5.48783 8.82181 5.20801 9.16699 5.20801C9.51217 5.20801 9.79199 5.48783 9.79199 5.83301C9.79199 6.26649 9.59172 6.63239 9.32505 6.91261C9.06144 7.1896 8.70953 7.41062 8.32249 7.58264C7.54682 7.92739 6.51905 8.12467 5.41699 8.12467C4.31494 8.12467 3.28717 7.92739 2.5115 7.58264C2.12446 7.41062 1.77255 7.1896 1.50894 6.91261C1.24227 6.63239 1.04199 6.26649 1.04199 5.83301C1.04199 5.48783 1.32181 5.20801 1.66699 5.20801Z" fill="white"/>
<path fill-rule="evenodd" clip-rule="evenodd" d="M2.41443 3.11578C2.30159 3.23436 2.29199 3.3069 2.29199 3.33366C2.29199 3.36041 2.30159 3.43295 2.41443 3.55153C2.53034 3.67332 2.72761 3.81144 3.01918 3.94103C3.60075 4.19951 4.44798 4.37533 5.41699 4.37533C6.38602 4.37533 7.23325 4.19951 7.81481 3.94103C8.10638 3.81144 8.30364 3.67333 8.41955 3.55153C8.5324 3.43295 8.54199 3.36041 8.54199 3.33366C8.54199 3.3069 8.5324 3.23436 8.41955 3.11578C8.30364 2.99398 8.10638 2.85587 7.81481 2.72628C7.23325 2.46781 6.38602 2.29199 5.41699 2.29199C4.44797 2.29199 3.60074 2.46781 3.01918 2.72628C2.72761 2.85587 2.53034 2.99399 2.41443 3.11578ZM2.51151 1.58402C3.28717 1.23927 4.31494 1.04199 5.41699 1.04199C6.51905 1.04199 7.54682 1.23927 8.32249 1.58402C8.70953 1.75604 9.06144 1.97705 9.32505 2.25405C9.59172 2.53427 9.79199 2.90018 9.79199 3.33366C9.79199 3.76714 9.59172 4.13304 9.32505 4.41326C9.06144 4.69026 8.70953 4.91127 8.32249 5.0833C7.54682 5.42804 6.51905 5.62533 5.41699 5.62533C4.31494 5.62533 3.28717 5.42804 2.5115 5.0833C2.12446 4.91127 1.77255 4.69026 1.50894 4.41326C1.24227 4.13304 1.04199 3.76714 1.04199 3.33366C1.04199 2.90018 1.24226 2.53427 1.50894 2.25405C1.77255 1.97705 2.12446 1.75604 2.51151 1.58402Z" fill="white"/>
<path fill-rule="evenodd" clip-rule="evenodd" d="M12.708 2.5C12.708 2.15482 12.9878 1.875 13.333 1.875H15.833C17.0986 1.875 18.1247 2.90101 18.1247 4.16667V6.66667C18.1247 7.01184 17.8449 7.29167 17.4997 7.29167C17.1545 7.29167 16.8747 7.01184 16.8747 6.66667V4.16667C16.8747 3.59137 16.4083 3.125 15.833 3.125H13.333C12.9878 3.125 12.708 2.84518 12.708 2.5Z" fill="white"/>
<path fill-rule="evenodd" clip-rule="evenodd" d="M2.5 12.708C2.84518 12.708 3.125 12.9878 3.125 13.333V15.833C3.125 16.4083 3.59137 16.8747 4.16667 16.8747H6.66667C7.01184 16.8747 7.29167 17.1545 7.29167 17.4997C7.29167 17.8449 7.01184 18.1247 6.66667 18.1247H4.16667C2.90101 18.1247 1.875 17.0986 1.875 15.833V13.333C1.875 12.9878 2.15482 12.708 2.5 12.708Z" fill="white"/>
<path fill-rule="evenodd" clip-rule="evenodd" d="M14.583 15.208C14.9282 15.208 15.208 15.4878 15.208 15.833V18.333C15.208 18.6782 14.9282 18.958 14.583 18.958C14.2378 18.958 13.958 18.6782 13.958 18.333V15.833C13.958 15.4878 14.2378 15.208 14.583 15.208Z" fill="white"/>
<path fill-rule="evenodd" clip-rule="evenodd" d="M11.458 18.333C11.458 17.9878 11.7378 17.708 12.083 17.708H17.083C17.4282 17.708 17.708 17.9878 17.708 18.333C17.708 18.6782 17.4282 18.958 17.083 18.958H12.083C11.7378 18.958 11.458 18.6782 11.458 18.333Z" fill="white"/>
<path fill-rule="evenodd" clip-rule="evenodd" d="M10.208 10.833C10.208 10.4878 10.4878 10.208 10.833 10.208H18.333C18.6782 10.208 18.958 10.4878 18.958 10.833V15.833C18.958 16.1782 18.6782 16.458 18.333 16.458H10.833C10.4878 16.458 10.208 16.1782 10.208 15.833V10.833ZM11.458 11.458V15.208H17.708V11.458H11.458Z" fill="white"/>
</svg>
