<svg width="56" height="56" viewBox="0 0 56 56" fill="none" xmlns="http://www.w3.org/2000/svg">
<path fill-rule="evenodd" clip-rule="evenodd" d="M8.16797 6.41699C7.20147 6.41699 6.41797 7.20049 6.41797 8.16699V47.8337C6.41797 48.8002 7.20147 49.5837 8.16797 49.5837H47.8346C48.8011 49.5837 49.5846 48.8002 49.5846 47.8337V8.16699C49.5846 7.20049 48.8011 6.41699 47.8346 6.41699H8.16797ZM2.91797 8.16699C2.91797 5.2675 5.26847 2.91699 8.16797 2.91699H47.8346C50.7341 2.91699 53.0846 5.2675 53.0846 8.16699V47.8337C53.0846 50.7332 50.7341 53.0837 47.8346 53.0837H8.16797C5.26847 53.0837 2.91797 50.7332 2.91797 47.8337V8.16699Z" fill="#3392D3"/>
<path fill-rule="evenodd" clip-rule="evenodd" d="M13.418 15.167C13.418 14.2005 14.2015 13.417 15.168 13.417H24.5013C25.4678 13.417 26.2513 14.2005 26.2513 15.167V24.5003C26.2513 25.4668 25.4678 26.2503 24.5013 26.2503H15.168C14.2015 26.2503 13.418 25.4668 13.418 24.5003V15.167ZM16.918 16.917V22.7503H22.7513V16.917H16.918Z" fill="#3392D3"/>
<path fill-rule="evenodd" clip-rule="evenodd" d="M29.75 15.167C29.75 14.2005 30.5335 13.417 31.5 13.417H40.8333C41.7998 13.417 42.5833 14.2005 42.5833 15.167C42.5833 16.1335 41.7998 16.917 40.8333 16.917H31.5C30.5335 16.917 29.75 16.1335 29.75 15.167Z" fill="#3392D3"/>
<path fill-rule="evenodd" clip-rule="evenodd" d="M29.75 23.333C29.75 22.3665 30.5335 21.583 31.5 21.583H40.8333C41.7998 21.583 42.5833 22.3665 42.5833 23.333C42.5833 24.2995 41.7998 25.083 40.8333 25.083H31.5C30.5335 25.083 29.75 24.2995 29.75 23.333Z" fill="#3392D3"/>
<path fill-rule="evenodd" clip-rule="evenodd" d="M13.418 32.667C13.418 31.7005 14.2015 30.917 15.168 30.917H40.8346C41.8011 30.917 42.5846 31.7005 42.5846 32.667C42.5846 33.6335 41.8011 34.417 40.8346 34.417H15.168C14.2015 34.417 13.418 33.6335 13.418 32.667Z" fill="#3392D3"/>
<path fill-rule="evenodd" clip-rule="evenodd" d="M13.418 40.833C13.418 39.8665 14.2015 39.083 15.168 39.083H40.8346C41.8011 39.083 42.5846 39.8665 42.5846 40.833C42.5846 41.7995 41.8011 42.583 40.8346 42.583H15.168C14.2015 42.583 13.418 41.7995 13.418 40.833Z" fill="#3392D3"/>
</svg>
