<svg width="57" height="57" viewBox="0 0 57 57" fill="none" xmlns="http://www.w3.org/2000/svg">
<path fill-rule="evenodd" clip-rule="evenodd" d="M8.66602 6.91699C7.69952 6.91699 6.91602 7.70049 6.91602 8.66699V48.3337C6.91602 49.3002 7.69952 50.0837 8.66602 50.0837H48.3327C49.2992 50.0837 50.0827 49.3002 50.0827 48.3337V8.66699C50.0827 7.70049 49.2992 6.91699 48.3327 6.91699H8.66602ZM3.41602 8.66699C3.41602 5.7675 5.76652 3.41699 8.66602 3.41699H48.3327C51.2322 3.41699 53.5827 5.7675 53.5827 8.66699V48.3337C53.5827 51.2332 51.2322 53.5837 48.3327 53.5837H8.66602C5.76652 53.5837 3.41602 51.2332 3.41602 48.3337V8.66699Z" fill="#3392D3"/>
<path fill-rule="evenodd" clip-rule="evenodd" d="M3.41602 20.7227C3.41602 19.7562 4.19952 18.9727 5.16602 18.9727H51.8327C52.7992 18.9727 53.5827 19.7562 53.5827 20.7227C53.5827 21.6892 52.7992 22.4727 51.8327 22.4727H5.16602C4.19952 22.4727 3.41602 21.6892 3.41602 20.7227Z" fill="#3392D3"/>
<path fill-rule="evenodd" clip-rule="evenodd" d="M20.7227 18.9727C21.6892 18.9727 22.4727 19.7562 22.4727 20.7227V51.8338C22.4727 52.8003 21.6892 53.5838 20.7227 53.5838C19.7562 53.5838 18.9727 52.8003 18.9727 51.8338V20.7227C18.9727 19.7562 19.7562 18.9727 20.7227 18.9727Z" fill="#3392D3"/>
</svg>
